<?xml version="1.0" encoding="UTF-8"?>
<svg id="Layer_1" data-name="Layer 1" xmlns="http://www.w3.org/2000/svg" viewBox="0 0 89.71 89.71">
  <defs>
    <style>
      .cls-1 {
        fill: #49660f;
      }

      .cls-2 {
        fill: #536f1d;
      }

      .cls-3 {
        fill: #fefefe;
      }

      .cls-4 {
        fill: #49670f;
      }

      .cls-5 {
        fill: #496710;
      }
    </style>
  </defs>
  <circle class="cls-3" cx="44.85" cy="44.85" r="44.85"/>
  <g>
    <path class="cls-4" d="M70.55,19.16c-1.6-.34-2.07.88-3.05,1.74-11.17,9.83-21.16,22.16-32.23,32.23l-3.92-3.05L65.76,14.8c7.62-.63,9.9-.14,9.15,8.28l-35.28,35.28-3.05-3.92c10.07-11.07,22.4-21.06,32.23-32.23.86-.98,2.08-1.44,1.74-3.05Z"/>
    <path class="cls-5" d="M19.16,19.16c-.34,1.6.88,2.07,1.74,3.05,5.32,6.04,11.97,11.43,17.42,17.42l-3.92,3.92L14.8,23.95c.38-2.25-.53-5.88,0-7.84.58-2.15,6.35-1.07,8.28-1.31l19.6,19.6-3.05,3.92c-5.99-5.45-11.38-12.1-17.42-17.42-.98-.86-1.44-2.08-3.05-1.74Z"/>
    <path class="cls-5" d="M25.69,48.77c1.69-.48,2.06.46,3.05,1.31,3.32,2.83,7.47,7.18,10.45,10.45.63.69,2.05,1.52,1.74,2.61-2.45,2.85-4.74.91-6.53-1.31h-.87c-1.23,1.93-8.79,7.84-9.15,9.15-.2.74.2,1.87,0,2.61-.33,1.21-2.72,1.64-3.92,1.31-.36-.1-4.88-4.66-5.23-5.23-.52-.85-.67-2.18-.44-3.05.48-1.76,2.96-1.04,3.92-1.31,1.33-.37,7.2-7.91,9.15-9.15v-.87c-1.45-.88-5.21-5.68-2.18-6.53Z"/>
    <path class="cls-1" d="M74.03,65.32c.23.11,2.06.5.87,3.05-1.21,1.86-3.69,4.14-5.66,5.66-.85.66-1.25,1.28-2.61.87-2.31-.69-1.84-3.55-2.18-4.79-.36-1.31-7.92-7.21-9.15-9.15-1.99,1.86-3.07,4.15-6.1,3.48-.74,0-.57-1.73-.44-2.18.24-.8,10.17-10.32,11.76-11.76.69-.63,1.53-2.06,2.61-1.74,3.48,1.01-.65,5.58-2.18,6.53,1.97,1.25,7.78,8.75,9.15,9.15,1.2.34,1.47.39,2.61.87.47.2,1.11-.09,1.31,0Z"/>
    <rect class="cls-2" x="46.87" y="52.72" width="5.54" height="4.31" transform="translate(-24.26 51.18) rotate(-45)"/>
    <polygon class="cls-5" points="54.44 47.03 57.48 49.21 54.44 53.13 51.39 50.08 54.44 47.03"/>
  </g>
</svg>