<?xml version="1.0" encoding="UTF-8"?>
<svg id="Layer_1" data-name="Layer 1" xmlns="http://www.w3.org/2000/svg" viewBox="0 0 55.39 54.35">
  <defs>
    <style>
      .cls-1 {
        fill: #fefefe;
      }
    </style>
  </defs>
  <path class="cls-1" d="M19.6.47c1.1.9,1.21,2.37.45,3.21-6.83,8.21-7.12,8.53-9.87,11.83-.16.2-.03.5.23.5h29.81c20.5,0,19.46,38.33,1.5,38.33H2.99v-6.01h36.47c12.93,0,12.8-25.56,1.5-25.56H10.4c-.26,0-.4.3-.23.49l10.19,12.33c.93,1.26.66,2.6-.27,3.4-1,.85-2.39.86-3.53-.27,0,0-15.73-17.36-15.82-17.45-.91-.98-1.05-2.45,0-3.76C4.3,13.09,12.24,4.83,16.05.74c.64-.68,2.52-1.11,3.55-.26Z"/>
</svg>